<svg width="25" height="25" viewBox="0 0 25 25" fill="none" xmlns="http://www.w3.org/2000/svg">
<path d="M12.4998 22.9164C10.9249 22.9208 9.36982 22.5645 7.95396 21.8747C7.43578 21.6226 6.9393 21.3282 6.46958 20.9945L6.32687 20.8903C5.03502 19.9368 3.97882 18.6999 3.23937 17.2747C2.4745 15.7995 2.07781 14.1613 2.08306 12.4997C2.08306 6.74671 6.74683 2.08301 12.4998 2.08301C18.2528 2.08301 22.9166 6.74671 22.9166 12.4997C22.9218 14.1605 22.5254 15.798 21.7613 17.2726C21.0229 18.697 19.9682 19.9334 18.678 20.8872C18.1912 21.2434 17.6748 21.5571 17.1342 21.8247L17.0509 21.8663C15.6341 22.5598 14.0772 22.919 12.4998 22.9164ZM12.4998 17.708C10.9388 17.705 9.50778 18.5768 8.79459 19.9653C11.1294 21.1217 13.8702 21.1217 16.205 19.9653V19.9601C15.491 18.5731 14.0598 17.7032 12.4998 17.708ZM12.4998 15.6247C14.7562 15.6276 16.8367 16.8435 17.9467 18.808L17.9623 18.7945L17.9769 18.782L17.9592 18.7976L17.9488 18.8059C20.5832 16.53 21.5251 12.8563 20.3109 9.59354C19.0967 6.3308 15.9822 4.16667 12.5009 4.16667C9.0195 4.16667 5.90499 6.3308 4.69078 9.59354C3.47656 12.8563 4.41854 16.53 7.05292 18.8059C8.16361 16.8424 10.2439 15.6274 12.4998 15.6247ZM12.4998 14.583C10.1986 14.583 8.33313 12.7175 8.33313 10.4163C8.33313 8.11515 10.1986 6.24967 12.4998 6.24967C14.801 6.24967 16.6665 8.11515 16.6665 10.4163C16.6665 11.5214 16.2275 12.5812 15.4461 13.3626C14.6647 14.144 13.6049 14.583 12.4998 14.583ZM12.4998 8.33301C11.3492 8.33301 10.4165 9.26575 10.4165 10.4163C10.4165 11.5669 11.3492 12.4997 12.4998 12.4997C13.6504 12.4997 14.5832 11.5669 14.5832 10.4163C14.5832 9.26575 13.6504 8.33301 12.4998 8.33301Z" fill="#828282"/>
</svg>
