<svg width="20" height="15" viewBox="0 0 20 15" fill="none" xmlns="http://www.w3.org/2000/svg">
<path d="M2 15H0C2.37122e-08 13.4087 0.632141 11.8826 1.75736 10.7574C2.88258 9.63214 4.4087 9 6 9C7.5913 9 9.11742 9.63214 10.2426 10.7574C11.3679 11.8826 12 13.4087 12 15H10C10 13.9391 9.57857 12.9217 8.82843 12.1716C8.07828 11.4214 7.06087 11 6 11C4.93913 11 3.92172 11.4214 3.17157 12.1716C2.42143 12.9217 2 13.9391 2 15ZM17 12H15V9H12V7H15V4H17V7H20V9H17V12ZM6 8C4.93913 8 3.92172 7.57857 3.17157 6.82843C2.42143 6.07828 2 5.06087 2 4C2 2.93913 2.42143 1.92172 3.17157 1.17157C3.92172 0.421427 4.93913 0 6 0C7.06087 0 8.07828 0.421427 8.82843 1.17157C9.57857 1.92172 10 2.93913 10 4C10 5.06087 9.57857 6.07828 8.82843 6.82843C8.07828 7.57857 7.06087 8 6 8ZM6 2C5.60836 2.0004 5.22545 2.11577 4.89878 2.33181C4.57211 2.54785 4.31606 2.85505 4.1624 3.21528C4.00874 3.57552 3.96422 3.97295 4.03438 4.35826C4.10453 4.74357 4.28627 5.0998 4.55704 5.38276C4.82782 5.66572 5.17571 5.86295 5.55756 5.94999C5.93941 6.03702 6.33841 6.01003 6.70506 5.87236C7.07171 5.73469 7.38987 5.4924 7.62007 5.17556C7.85027 4.85871 7.98238 4.48125 8 4.09V4.49V4C8 3.46957 7.78929 2.96086 7.41421 2.58579C7.03914 2.21071 6.53043 2 6 2Z" fill="#F2994A"/>
</svg>
