<svg width="21" height="20" viewBox="0 0 21 20" fill="none" xmlns="http://www.w3.org/2000/svg">
<path d="M10.0499 20C4.49951 20 0 15.5228 0 10C0 4.47715 4.49951 0 10.0499 0C15.6004 0 20.0999 4.47715 20.0999 10C20.0938 15.5203 15.5978 19.9939 10.0499 20ZM2.00999 10.172C2.05754 14.5732 5.66928 18.1095 10.0927 18.086C14.5161 18.0622 18.0894 14.4875 18.0894 10.086C18.0894 5.68451 14.5161 2.10977 10.0927 2.086C5.66928 2.06246 2.05754 5.59876 2.00999 10V10.172ZM8.03995 14.5V5.5L14.0699 10L8.03995 14.5Z" fill="#8FBFFF"/>
</svg>
