<svg width="40" height="28" viewBox="0 0 40 28" fill="none" xmlns="http://www.w3.org/2000/svg">
<path d="M31.6667 27.3334H10C4.79064 27.3365 0.451511 23.3398 0.027294 18.1477C-0.396923 12.9556 3.2359 8.30759 8.37669 7.46503C10.7429 3.26984 15.1835 0.672546 20 0.666598C23.0034 0.655246 25.9208 1.66886 28.27 3.54003C30.5768 5.36979 32.2169 7.90832 32.9367 10.7634C37.2432 11.4251 40.313 15.2926 39.9801 19.6369C39.6471 23.9812 36.0237 27.3357 31.6667 27.3334ZM20 4.00001C16.3862 4.00428 13.0545 5.95353 11.28 9.10169L10.5 10.5L8.91835 10.7584C5.50216 11.3307 3.09337 14.4239 3.37538 17.8762C3.65738 21.3285 6.53623 23.9897 10 24H31.6667C34.281 24.0027 36.456 21.991 36.657 19.3845C36.8581 16.7779 35.0172 14.4565 32.4334 14.0584L30.24 13.725L29.7034 11.5717C28.5955 7.11637 24.591 3.99162 20 4.00001ZM22.4167 20.6667H17.5834V15.6667H13.3334L20 9.00003L26.6667 15.6667H22.4167V20.6667Z" fill="white"/>
</svg>
