<svg width="22" height="20" viewBox="0 0 22 20" fill="none" xmlns="http://www.w3.org/2000/svg">
<path d="M12.6268 13H10.3372C9.70617 13 9.19239 12.5589 9.19239 12.0172V7.49607H6.67383C6.07029 7.49607 5.76074 6.87334 6.17744 6.49907L10.9856 2.17455C11.2448 1.94182 11.7201 1.94182 11.9793 2.17455L16.7874 6.49907C17.2032 6.87334 16.8937 7.49607 16.2901 7.49607H13.7716V12.0172C13.7716 12.5589 13.2578 13 12.6268 13Z" fill="white"/>
<path d="M18.7507 18H4.22982C3.54628 18 2.99023 17.4112 2.99023 16.6875V16.3125C2.99023 15.5888 3.54628 15 4.22982 15H18.7507C19.4342 15 19.9902 15.5888 19.9902 16.3125V16.6875C19.9902 17.4112 19.4342 18 18.7507 18Z" fill="white"/>
</svg>
