<svg width="61" height="61" viewBox="0 0 61 61" fill="none" xmlns="http://www.w3.org/2000/svg">
<path d="M30.6802 60.0015C14.0973 59.9833 0.658836 46.5625 0.640625 30.0015V29.4015C0.970854 12.9151 14.5627 -0.214628 31.0727 0.00414424C47.5827 0.222916 60.821 13.7082 60.7131 30.1975C60.6052 46.6869 47.1916 59.9982 30.6802 60.0015ZM30.6321 54.0015H30.6802C43.9478 53.9883 54.6944 43.2397 54.6878 29.9895C54.6812 16.7394 43.9238 6.00152 30.6562 6.00152C17.3885 6.00152 6.63114 16.7394 6.62451 29.9895C6.61788 43.2397 17.3645 53.9883 30.6321 54.0015ZM39.6921 42.0015H33.6841V18.0015H39.6921V42.0015ZM27.6762 42.0015H21.6683V18.0015H27.6762V42.0015Z" fill="white"/>
</svg>
